<svg width="16" height="16" viewBox="0 0 16 16" fill="none" xmlns="http://www.w3.org/2000/svg">
<g clip-path="url(#clip0_5097_46627)">
<path d="M7.99334 1.33398C4.31334 1.33398 1.33334 4.32065 1.33334 8.00065C1.33334 11.6807 4.31334 14.6673 7.99334 14.6673C11.68 14.6673 14.6667 11.6807 14.6667 8.00065C14.6667 4.32065 11.68 1.33398 7.99334 1.33398ZM8 13.334C5.05334 13.334 2.66667 10.9473 2.66667 8.00065C2.66667 5.05398 5.05334 2.66732 8 2.66732C10.9467 2.66732 13.3333 5.05398 13.3333 8.00065C13.3333 10.9473 10.9467 13.334 8 13.334Z" fill="#505267"/>
<path d="M8.33334 4.66602H7.33334V8.66602L10.8333 10.766L11.3333 9.94602L8.33334 8.16602V4.66602Z" fill="#505267"/>
</g>
<defs>
<clipPath id="clip0_5097_46627">
<rect width="16" height="16" fill="white"/>
</clipPath>
</defs>
</svg>
