<svg width="14" height="14" viewBox="0 0 14 14" fill="none" xmlns="http://www.w3.org/2000/svg">
<path d="M6.99333 0.333984C3.31333 0.333984 0.32666 3.32065 0.32666 7.00065C0.32666 10.6807 3.31333 13.6673 6.99333 13.6673C10.6733 13.6673 13.66 10.6807 13.66 7.00065C13.66 3.32065 10.6733 0.333984 6.99333 0.333984ZM9.39999 4.56065C10.1133 4.56065 10.6867 5.13398 10.6867 5.84732C10.6867 6.56065 10.1133 7.13398 9.39999 7.13398C8.68666 7.13398 8.11333 6.56065 8.11333 5.84732C8.10666 5.13398 8.68666 4.56065 9.39999 4.56065ZM5.39999 3.50732C6.26666 3.50732 6.97333 4.21398 6.97333 5.08065C6.97333 5.94732 6.26666 6.65398 5.39999 6.65398C4.53333 6.65398 3.82666 5.94732 3.82666 5.08065C3.82666 4.20732 4.52666 3.50732 5.39999 3.50732ZM5.39999 9.59398V12.094C3.79999 11.594 2.53333 10.3607 1.97333 8.78732C2.67333 8.04065 4.41999 7.66065 5.39999 7.66065C5.75333 7.66065 6.19999 7.71398 6.66666 7.80732C5.57333 8.38732 5.39999 9.15399 5.39999 9.59398ZM6.99333 12.334C6.81333 12.334 6.63999 12.3273 6.46666 12.3073V9.59398C6.46666 8.64732 8.42666 8.17398 9.39999 8.17398C10.1133 8.17398 11.3467 8.43398 11.96 8.94065C11.18 10.9207 9.25333 12.334 6.99333 12.334Z" fill="#505267"/>
</svg>
