<svg width="10" height="14" viewBox="0 0 10 14" fill="none" xmlns="http://www.w3.org/2000/svg">
<path d="M5.00001 0.333984C2.42001 0.333984 0.333344 2.42065 0.333344 5.00065C0.333344 6.16065 0.666677 7.24732 1.27334 8.22732C1.90668 9.25398 2.74001 10.134 3.38001 11.1607C3.69334 11.6607 3.92001 12.1273 4.16001 12.6673C4.33334 13.034 4.47334 13.6673 5.00001 13.6673C5.52668 13.6673 5.66668 13.034 5.83334 12.6673C6.08001 12.1273 6.30001 11.6607 6.61334 11.1607C7.25334 10.1407 8.08668 9.26065 8.72001 8.22732C9.33334 7.24732 9.66668 6.16065 9.66668 5.00065C9.66668 2.42065 7.58001 0.333984 5.00001 0.333984ZM5.00001 6.83398C4.08001 6.83398 3.33334 6.08732 3.33334 5.16732C3.33334 4.24732 4.08001 3.50065 5.00001 3.50065C5.92001 3.50065 6.66668 4.24732 6.66668 5.16732C6.66668 6.08732 5.92001 6.83398 5.00001 6.83398Z" fill="#505267"/>
</svg>
