<svg width="20" height="28" viewBox="0 0 20 28" fill="none" xmlns="http://www.w3.org/2000/svg">
<path d="M10 0.666992C4.84 0.666992 0.666668 4.84033 0.666668 10.0003C0.666668 12.3203 1.33333 14.4937 2.54667 16.4537C3.81333 18.507 5.48 20.267 6.76 22.3203C7.38667 23.3203 7.84 24.2537 8.32 25.3337C8.66667 26.067 8.94667 27.3337 10 27.3337C11.0533 27.3337 11.3333 26.067 11.6667 25.3337C12.16 24.2537 12.6 23.3203 13.2267 22.3203C14.5067 20.2803 16.1733 18.5203 17.44 16.4537C18.6667 14.4937 19.3333 12.3203 19.3333 10.0003C19.3333 4.84033 15.16 0.666992 10 0.666992ZM10 13.667C8.16 13.667 6.66667 12.1737 6.66667 10.3337C6.66667 8.49366 8.16 7.00033 10 7.00033C11.84 7.00033 13.3333 8.49366 13.3333 10.3337C13.3333 12.1737 11.84 13.667 10 13.667Z" fill="#00767C"/>
</svg>
