<svg width="32" height="32" viewBox="0 0 32 32" fill="none" xmlns="http://www.w3.org/2000/svg">
<g clip-path="url(#clip0_5108_63979)">
<path d="M15.9866 2.66602C8.62663 2.66602 2.66663 8.63935 2.66663 15.9993C2.66663 23.3594 8.62663 29.3327 15.9866 29.3327C23.36 29.3327 29.3333 23.3594 29.3333 15.9993C29.3333 8.63935 23.36 2.66602 15.9866 2.66602ZM16 26.666C10.1066 26.666 5.33329 21.8927 5.33329 15.9993C5.33329 10.106 10.1066 5.33268 16 5.33268C21.8933 5.33268 26.6666 10.106 26.6666 15.9993C26.6666 21.8927 21.8933 26.666 16 26.666Z" fill="#00767C"/>
<path d="M16.6666 9.33398H14.6666V17.334L21.6666 21.534L22.6666 19.894L16.6666 16.334V9.33398Z" fill="#00767C"/>
</g>
<defs>
<clipPath id="clip0_5108_63979">
<rect width="32" height="32" fill="white"/>
</clipPath>
</defs>
</svg>
