<svg width="14" height="14" viewBox="0 0 14 14" fill="none" xmlns="http://www.w3.org/2000/svg">
<path d="M6.99998 0.333984C3.31998 0.333984 0.333313 3.32065 0.333313 7.00065C0.333313 10.6807 3.31998 13.6673 6.99998 13.6673C10.68 13.6673 13.6666 10.6807 13.6666 7.00065C13.6666 3.32065 10.68 0.333984 6.99998 0.333984ZM7.93998 11.0607V12.334H6.15998V11.0473C5.01998 10.8073 4.05331 10.074 3.97998 8.78065H5.28665C5.35331 9.48065 5.83331 10.0273 7.05331 10.0273C8.35998 10.0273 8.65331 9.37398 8.65331 8.96732C8.65331 8.41398 8.35998 7.89398 6.87331 7.54065C5.21998 7.14065 4.08665 6.46065 4.08665 5.09398C4.08665 3.94732 5.01331 3.20065 6.15998 2.95398V1.66732H7.93998V2.96732C9.17998 3.26732 9.79998 4.20732 9.83998 5.22732H8.53331C8.49998 4.48732 8.10665 3.98065 7.05331 3.98065C6.05331 3.98065 5.45331 4.43398 5.45331 5.07398C5.45331 5.63398 5.88665 6.00065 7.23331 6.34732C8.57998 6.69398 10.02 7.27398 10.02 8.95399C10.0133 10.174 9.09998 10.8407 7.93998 11.0607Z" fill="#505267"/>
</svg>
