<svg width="133" height="37" viewBox="0 0 133 37" fill="none" xmlns="http://www.w3.org/2000/svg">
<rect y="0.5" width="133" height="36" rx="8" fill="white"/>
<path d="M24.016 20.772H19.488C18.9867 21.9027 18.736 22.6867 18.736 23.124C18.736 23.444 18.8533 23.6467 19.088 23.732C19.3333 23.8173 19.696 23.86 20.176 23.86V24.5H15.792V23.86C16.048 23.828 16.2667 23.7853 16.448 23.732C16.64 23.6787 16.8053 23.604 16.944 23.508C17.0933 23.412 17.2213 23.2893 17.328 23.14C17.4347 22.98 17.536 22.788 17.632 22.564L21.84 12.02H23.024L26.848 21.364C27.072 21.908 27.2587 22.3347 27.408 22.644C27.568 22.9533 27.7333 23.1933 27.904 23.364C28.0853 23.524 28.288 23.636 28.512 23.7C28.7467 23.764 29.0453 23.812 29.408 23.844V24.5H23.36V23.844C23.872 23.8227 24.24 23.7693 24.464 23.684C24.688 23.5987 24.8 23.428 24.8 23.172C24.8 23.0227 24.7627 22.8307 24.688 22.596C24.6133 22.3613 24.512 22.0733 24.384 21.732L24.016 20.772ZM19.856 19.812H23.664L21.824 14.964H21.76L19.856 19.812ZM36.8679 23.476H36.8039C36.0679 24.2653 35.1132 24.66 33.9399 24.66C33.3319 24.66 32.7719 24.5533 32.2599 24.34C31.7585 24.1267 31.3212 23.828 30.9479 23.444C30.5852 23.06 30.3025 22.6067 30.0999 22.084C29.8972 21.5507 29.7959 20.964 29.7959 20.324C29.7959 19.684 29.8972 19.092 30.0999 18.548C30.3132 18.004 30.5959 17.5347 30.9479 17.14C31.3105 16.7347 31.7372 16.42 32.2279 16.196C32.7292 15.972 33.2679 15.86 33.8439 15.86C34.3772 15.86 34.8465 15.94 35.2519 16.1C35.6679 16.26 36.0305 16.532 36.3399 16.916H36.4039V15.556C36.4039 14.9267 36.3932 14.388 36.3719 13.94C36.3612 13.4813 36.3399 13.1827 36.3079 13.044C36.2545 12.82 36.0892 12.66 35.8119 12.564C35.5452 12.4573 35.1292 12.404 34.5639 12.404V11.86L38.6119 11.22V20.372C38.6119 21.172 38.6172 21.7907 38.6279 22.228C38.6492 22.6547 38.6812 22.98 38.7239 23.204C38.7452 23.3427 38.7772 23.4547 38.8199 23.54C38.8625 23.6253 38.9265 23.6947 39.0119 23.748C39.0972 23.7907 39.2092 23.8227 39.3479 23.844C39.4972 23.8547 39.6839 23.86 39.9079 23.86V24.484L36.8679 24.66V23.476ZM36.3719 19.908C36.3719 19.5027 36.3292 19.1293 36.2439 18.788C36.1585 18.436 36.0305 18.1267 35.8599 17.86C35.6679 17.5507 35.4225 17.316 35.1239 17.156C34.8252 16.996 34.5052 16.916 34.1639 16.916C33.5345 16.916 33.0545 17.204 32.7239 17.78C32.3932 18.356 32.2279 19.1933 32.2279 20.292C32.2279 21.4013 32.3932 22.2547 32.7239 22.852C33.0545 23.4493 33.5292 23.748 34.1479 23.748C34.4999 23.748 34.8359 23.6573 35.1559 23.476C35.4759 23.2947 35.7372 23.0493 35.9399 22.74C36.0892 22.5053 36.1959 22.2173 36.2599 21.876C36.3345 21.524 36.3719 21.076 36.3719 20.532V19.908ZM48.4773 23.476H48.4133C47.6773 24.2653 46.7226 24.66 45.5493 24.66C44.9413 24.66 44.3813 24.5533 43.8693 24.34C43.3679 24.1267 42.9306 23.828 42.5573 23.444C42.1946 23.06 41.9119 22.6067 41.7093 22.084C41.5066 21.5507 41.4053 20.964 41.4053 20.324C41.4053 19.684 41.5066 19.092 41.7093 18.548C41.9226 18.004 42.2053 17.5347 42.5573 17.14C42.9199 16.7347 43.3466 16.42 43.8373 16.196C44.3386 15.972 44.8773 15.86 45.4533 15.86C45.9866 15.86 46.4559 15.94 46.8613 16.1C47.2773 16.26 47.6399 16.532 47.9493 16.916H48.0133V15.556C48.0133 14.9267 48.0026 14.388 47.9813 13.94C47.9706 13.4813 47.9493 13.1827 47.9173 13.044C47.8639 12.82 47.6986 12.66 47.4213 12.564C47.1546 12.4573 46.7386 12.404 46.1733 12.404V11.86L50.2213 11.22V20.372C50.2213 21.172 50.2266 21.7907 50.2373 22.228C50.2586 22.6547 50.2906 22.98 50.3333 23.204C50.3546 23.3427 50.3866 23.4547 50.4293 23.54C50.4719 23.6253 50.5359 23.6947 50.6213 23.748C50.7066 23.7907 50.8186 23.8227 50.9573 23.844C51.1066 23.8547 51.2933 23.86 51.5173 23.86V24.484L48.4773 24.66V23.476ZM47.9813 19.908C47.9813 19.5027 47.9386 19.1293 47.8533 18.788C47.7679 18.436 47.6399 18.1267 47.4693 17.86C47.2773 17.5507 47.0319 17.316 46.7333 17.156C46.4346 16.996 46.1146 16.916 45.7733 16.916C45.1439 16.916 44.6639 17.204 44.3333 17.78C44.0026 18.356 43.8373 19.1933 43.8373 20.292C43.8373 21.4013 44.0026 22.2547 44.3333 22.852C44.6639 23.4493 45.1386 23.748 45.7573 23.748C46.1093 23.748 46.4453 23.6573 46.7653 23.476C47.0853 23.2947 47.3466 23.0493 47.5493 22.74C47.6986 22.5053 47.8053 22.2173 47.8693 21.876C47.9439 21.524 47.9813 21.076 47.9813 20.532V19.908ZM60.6286 17.06H60.6926C61.3966 16.26 62.314 15.86 63.4446 15.86C64.0633 15.86 64.6286 15.972 65.1406 16.196C65.6633 16.4093 66.1113 16.7133 66.4846 17.108C66.8686 17.492 67.162 17.956 67.3646 18.5C67.578 19.0333 67.6846 19.62 67.6846 20.26C67.6846 20.9 67.578 21.4867 67.3646 22.02C67.162 22.5533 66.874 23.0173 66.5006 23.412C66.1273 23.8067 65.6793 24.116 65.1566 24.34C64.6446 24.5533 64.0846 24.66 63.4766 24.66C62.442 24.66 61.6526 24.308 61.1086 23.604H61.0446V25.828C61.0446 26.2547 61.066 26.596 61.1086 26.852C61.1513 27.108 61.242 27.3053 61.3806 27.444C61.5193 27.5827 61.7113 27.6787 61.9566 27.732C62.2126 27.7853 62.5486 27.8173 62.9646 27.828V28.5H57.4446V27.828C57.7326 27.8173 57.9673 27.7853 58.1486 27.732C58.33 27.6787 58.4686 27.5827 58.5646 27.444C58.6713 27.3053 58.7406 27.1133 58.7726 26.868C58.8153 26.6333 58.8366 26.324 58.8366 25.94V19.988C58.8366 19.4973 58.826 19.0333 58.8046 18.596C58.7833 18.148 58.7566 17.8333 58.7246 17.652C58.6713 17.4067 58.5486 17.236 58.3566 17.14C58.1753 17.044 57.8606 16.996 57.4126 16.996V16.372L60.6286 15.924V17.06ZM63.3486 16.772C63.0073 16.772 62.682 16.8467 62.3726 16.996C62.0633 17.1453 61.818 17.3427 61.6366 17.588C61.4553 17.8333 61.3166 18.1427 61.2206 18.516C61.1246 18.8787 61.0766 19.2733 61.0766 19.7V20.788C61.0766 21.5453 61.2633 22.1907 61.6366 22.724C62.042 23.3107 62.6126 23.604 63.3486 23.604C63.9993 23.604 64.4793 23.3373 64.7886 22.804C65.1086 22.26 65.2686 21.4227 65.2686 20.292C65.2686 17.9453 64.6286 16.772 63.3486 16.772ZM72.7009 21.876C72.7009 22.3133 72.7115 22.66 72.7329 22.916C72.7649 23.1613 72.8235 23.3533 72.9089 23.492C73.0049 23.6307 73.1435 23.7213 73.3249 23.764C73.5169 23.8067 73.7729 23.8387 74.0929 23.86V24.5H69.0529V23.86C69.3729 23.8387 69.6289 23.8067 69.8209 23.764C70.0129 23.7213 70.1569 23.636 70.2529 23.508C70.3489 23.38 70.4075 23.1987 70.4289 22.964C70.4609 22.7187 70.4769 22.3933 70.4769 21.988V15.412C70.4769 14.772 70.4662 14.2707 70.4449 13.908C70.4342 13.5347 70.4075 13.252 70.3649 13.06C70.3329 12.9213 70.2955 12.8147 70.2529 12.74C70.2102 12.6547 70.1409 12.5907 70.0449 12.548C69.9595 12.4947 69.8369 12.4627 69.6769 12.452C69.5275 12.4307 69.3355 12.42 69.1009 12.42V11.828L72.6689 11.22V17.124H72.7329C73.0635 16.6867 73.4315 16.3667 73.8369 16.164C74.2529 15.9613 74.7489 15.86 75.3249 15.86C76.3702 15.86 77.1809 16.18 77.7569 16.82C78.0342 17.14 78.2529 17.5293 78.4129 17.988C78.5729 18.436 78.6529 18.9053 78.6529 19.396V21.876C78.6529 22.324 78.6635 22.676 78.6849 22.932C78.7062 23.1773 78.7595 23.3693 78.8449 23.508C78.9409 23.636 79.0795 23.7213 79.2609 23.764C79.4422 23.8067 79.6929 23.8387 80.0129 23.86V24.5H75.0049V23.86C75.3249 23.8493 75.5755 23.8227 75.7569 23.78C75.9489 23.7267 76.0929 23.636 76.1889 23.508C76.2955 23.38 76.3595 23.1987 76.3809 22.964C76.4129 22.7187 76.4289 22.3933 76.4289 21.988V20.02C76.4289 18.8893 76.3062 18.0893 76.0609 17.62C75.8155 17.1507 75.3942 16.916 74.7969 16.916C74.1569 16.916 73.6502 17.1507 73.2769 17.62C73.0955 17.8653 72.9515 18.1693 72.8449 18.532C72.7489 18.8947 72.7009 19.3 72.7009 19.748V21.876ZM85.9668 15.86C86.6068 15.86 87.2094 15.972 87.7748 16.196C88.3508 16.4093 88.8521 16.708 89.2788 17.092C89.7161 17.476 90.0574 17.9347 90.3028 18.468C90.5588 18.9907 90.6868 19.5667 90.6868 20.196C90.6868 20.8467 90.5588 21.444 90.3028 21.988C90.0574 22.532 89.7161 23.0013 89.2788 23.396C88.8521 23.7907 88.3508 24.1 87.7748 24.324C87.2094 24.548 86.6068 24.66 85.9668 24.66C85.3374 24.66 84.7401 24.5533 84.1748 24.34C83.6094 24.116 83.1134 23.8067 82.6868 23.412C82.2601 23.0173 81.9241 22.548 81.6788 22.004C81.4334 21.4493 81.3108 20.8467 81.3108 20.196C81.3108 19.5667 81.4334 18.9853 81.6788 18.452C81.9241 17.9187 82.2601 17.46 82.6868 17.076C83.1134 16.692 83.6094 16.3933 84.1748 16.18C84.7401 15.9667 85.3374 15.86 85.9668 15.86ZM85.9668 16.788C85.6468 16.788 85.3534 16.8733 85.0868 17.044C84.8201 17.204 84.5908 17.4333 84.3988 17.732C84.2174 18.0307 84.0734 18.3933 83.9668 18.82C83.8708 19.236 83.8228 19.7 83.8228 20.212C83.8228 20.7453 83.8708 21.2253 83.9668 21.652C84.0734 22.0787 84.2174 22.4413 84.3988 22.74C84.5908 23.0387 84.8148 23.2733 85.0708 23.444C85.3374 23.604 85.6361 23.684 85.9668 23.684C86.2974 23.684 86.5961 23.604 86.8628 23.444C87.1401 23.2733 87.3748 23.0387 87.5668 22.74C87.7588 22.4307 87.9081 22.0627 88.0148 21.636C88.1214 21.2093 88.1748 20.7347 88.1748 20.212C88.1748 19.7 88.1214 19.236 88.0148 18.82C87.9081 18.404 87.7588 18.0467 87.5668 17.748C87.3748 17.4387 87.1401 17.204 86.8628 17.044C86.5961 16.8733 86.2974 16.788 85.9668 16.788ZM92.1813 16.9V16.18C92.8213 15.9987 93.3546 15.7267 93.7812 15.364C94.2186 14.9907 94.5439 14.564 94.7573 14.084H95.5733V16.02H97.4133V16.9H95.5733V21.812C95.5733 22.4733 95.6426 22.9427 95.7812 23.22C95.9306 23.4973 96.1759 23.636 96.5173 23.636C96.9333 23.636 97.2479 23.444 97.4613 23.06L97.7973 23.524C97.4986 24.2813 96.7946 24.66 95.6853 24.66C94.9493 24.66 94.3733 24.4893 93.9573 24.148C93.5519 23.8067 93.3493 23.3267 93.3493 22.708V16.9H92.1813ZM103.639 15.86C104.279 15.86 104.881 15.972 105.447 16.196C106.023 16.4093 106.524 16.708 106.951 17.092C107.388 17.476 107.729 17.9347 107.975 18.468C108.231 18.9907 108.359 19.5667 108.359 20.196C108.359 20.8467 108.231 21.444 107.975 21.988C107.729 22.532 107.388 23.0013 106.951 23.396C106.524 23.7907 106.023 24.1 105.447 24.324C104.881 24.548 104.279 24.66 103.639 24.66C103.009 24.66 102.412 24.5533 101.847 24.34C101.281 24.116 100.785 23.8067 100.359 23.412C99.932 23.0173 99.596 22.548 99.3506 22.004C99.1053 21.4493 98.9826 20.8467 98.9826 20.196C98.9826 19.5667 99.1053 18.9853 99.3506 18.452C99.596 17.9187 99.932 17.46 100.359 17.076C100.785 16.692 101.281 16.3933 101.847 16.18C102.412 15.9667 103.009 15.86 103.639 15.86ZM103.639 16.788C103.319 16.788 103.025 16.8733 102.759 17.044C102.492 17.204 102.263 17.4333 102.071 17.732C101.889 18.0307 101.745 18.3933 101.639 18.82C101.543 19.236 101.495 19.7 101.495 20.212C101.495 20.7453 101.543 21.2253 101.639 21.652C101.745 22.0787 101.889 22.4413 102.071 22.74C102.263 23.0387 102.487 23.2733 102.743 23.444C103.009 23.604 103.308 23.684 103.639 23.684C103.969 23.684 104.268 23.604 104.535 23.444C104.812 23.2733 105.047 23.0387 105.239 22.74C105.431 22.4307 105.58 22.0627 105.687 21.636C105.793 21.2093 105.847 20.7347 105.847 20.212C105.847 19.7 105.793 19.236 105.687 18.82C105.58 18.404 105.431 18.0467 105.239 17.748C105.047 17.4387 104.812 17.204 104.535 17.044C104.268 16.8733 103.969 16.788 103.639 16.788ZM110.813 24.5H110.317V21.588H110.989C111.17 22.356 111.432 22.916 111.773 23.268C112.114 23.62 112.557 23.796 113.101 23.796C113.496 23.796 113.8 23.716 114.013 23.556C114.237 23.3853 114.349 23.156 114.349 22.868C114.349 22.5693 114.216 22.2813 113.949 22.004C113.682 21.716 113.25 21.412 112.653 21.092C111.842 20.6547 111.261 20.2227 110.909 19.796C110.557 19.3587 110.381 18.868 110.381 18.324C110.381 17.972 110.445 17.6467 110.573 17.348C110.712 17.0387 110.893 16.772 111.117 16.548C111.352 16.324 111.629 16.1533 111.949 16.036C112.269 15.908 112.616 15.844 112.989 15.844C113.32 15.844 113.645 15.892 113.965 15.988C114.296 16.084 114.584 16.2173 114.829 16.388L115.117 16.004H115.533V18.42H114.909C114.664 17.812 114.408 17.3747 114.141 17.108C113.885 16.8413 113.57 16.708 113.197 16.708C112.898 16.708 112.658 16.788 112.477 16.948C112.306 17.108 112.221 17.3213 112.221 17.588C112.221 17.8867 112.349 18.1693 112.605 18.436C112.872 18.7027 113.309 18.996 113.917 19.316C114.344 19.5507 114.712 19.78 115.021 20.004C115.33 20.228 115.581 20.4573 115.773 20.692C115.965 20.916 116.104 21.156 116.189 21.412C116.285 21.6573 116.333 21.924 116.333 22.212C116.333 22.5853 116.264 22.9213 116.125 23.22C115.986 23.5187 115.789 23.7747 115.533 23.988C115.277 24.2013 114.968 24.3667 114.605 24.484C114.253 24.6013 113.858 24.66 113.421 24.66C112.962 24.66 112.536 24.6013 112.141 24.484C111.746 24.356 111.421 24.1747 111.165 23.94L110.813 24.5Z" fill="#444444"/>
<rect x="0.5" y="1" width="132" height="35" rx="7.5" stroke="#444444"/>
</svg>
