<svg width="28" height="28" viewBox="0 0 28 28" fill="none" xmlns="http://www.w3.org/2000/svg">
<path d="M13.732 0.400391C6.36978 0.400391 0.400002 6.37016 0.400002 13.7324C0.400002 21.0946 6.36978 27.0644 13.732 27.0644C21.0942 27.0644 27.064 21.0946 27.064 13.7324C27.064 6.37016 21.0942 0.400391 13.732 0.400391ZM18.0575 18.68C18.0575 19.1985 18.2649 19.6133 18.5908 19.6577C18.9167 19.7022 19.287 19.3318 19.4499 18.7689L19.7462 18.8874C20.8098 19.4563 21.3312 20.6947 20.9905 21.8501C20.7683 22.8722 19.8899 23.6247 18.8426 23.687C18.1167 21.8945 15.717 23.7758 13.5691 23.3611C12.6625 23.1329 11.9248 22.4723 11.5989 21.5983C13.3617 21.4353 15.8207 19.0356 18.0575 18.68ZM12.2507 17.095C13.6105 17.095 14.7615 16.0877 14.9467 14.7397C15.5985 15.5396 15.554 16.701 14.843 17.4505C14.4653 17.7809 13.9631 17.932 13.4654 17.8653C12.9691 17.7957 12.5247 17.5157 12.2507 17.095ZM16.6947 15.9692C17.302 16.5469 21.1387 15.8803 21.909 17.5839C20.5017 17.2876 17.539 18.4875 16.7687 15.984L16.6947 15.9692ZM14.8134 8.47366V8.87362C13.8505 7.73299 12.8432 7.28859 12.4284 8.02926C12.0137 8.76992 13.9098 9.67354 13.5542 10.8142C13.1987 11.9548 11.6729 11.6437 10.7693 13.1991C9.86572 14.7545 10.0435 16.7839 12.6062 18.6356C10.8404 18.4401 9.36207 17.2106 8.8436 15.51C8.25107 13.7324 8.71028 12.1622 7.68816 11.8659C6.32534 11.4511 4.844 13.3028 4.844 14.9175C2.97752 13.051 4.91807 10.6808 3.0664 8.72548C5.58467 3.36009 11.7233 0.730728 17.3465 2.60758C15.717 4.11854 14.7956 6.24869 14.8134 8.47366Z" fill="#00767C"/>
</svg>
