<svg width="11" height="11" viewBox="0 0 11 11" fill="none" xmlns="http://www.w3.org/2000/svg">
<path fill-rule="evenodd" clip-rule="evenodd" d="M4.99905 9.00279C4.60469 9.00279 4.21419 8.92511 3.84985 8.7742C3.48551 8.62328 3.15446 8.40209 2.8756 8.12323C2.59675 7.84438 2.37555 7.51333 2.22464 7.14899C2.07372 6.78465 1.99605 6.39415 1.99605 5.99979C1.99605 5.60543 2.07372 5.21493 2.22464 4.85059C2.37555 4.48625 2.59675 4.1552 2.8756 3.87635C3.15446 3.59749 3.48551 3.37629 3.84985 3.22538C4.21419 3.07446 4.60469 2.99679 4.99905 2.99679C5.79549 2.99679 6.55932 3.31318 7.12249 3.87635C7.68566 4.43952 8.00204 5.20334 8.00204 5.99979C8.00204 6.79623 7.68566 7.56006 7.12249 8.12323C6.55932 8.6864 5.79549 9.00279 4.99905 9.00279ZM4.99905 1.37379C3.77215 1.37379 2.59551 1.86117 1.72797 2.72871C0.860427 3.59626 0.373047 4.7729 0.373047 5.99979C0.373047 7.22668 0.860427 8.40332 1.72797 9.27087C2.59551 10.1384 3.77215 10.6258 4.99905 10.6258C6.22594 10.6258 7.40258 10.1384 8.27012 9.27087C9.13766 8.40332 9.62504 7.22668 9.62504 5.99979C9.62504 4.7729 9.13766 3.59626 8.27012 2.72871C7.40258 1.86117 6.22594 1.37379 4.99905 1.37379ZM10.9708 1.28979C10.9708 1.5798 10.8556 1.85794 10.6506 2.06301C10.4455 2.26808 10.1674 2.38329 9.87734 2.38329C9.58733 2.38329 9.30919 2.26808 9.10412 2.06301C8.89905 1.85794 8.78384 1.5798 8.78384 1.28979C8.78384 0.999775 8.89905 0.721639 9.10412 0.516568C9.30919 0.311497 9.58733 0.196289 9.87734 0.196289C10.1674 0.196289 10.4455 0.311497 10.6506 0.516568C10.8556 0.721639 10.9708 0.999775 10.9708 1.28979Z" fill="#505267"/>
</svg>
